<?xml version="1.0" encoding="UTF-8"?>
<svg xmlns="http://www.w3.org/2000/svg" xmlns:xlink="http://www.w3.org/1999/xlink" width="25pt" height="25pt" viewBox="0 0 25 25" version="1.1">
<g id="surface942">
<path style=" stroke:none;fill-rule:nonzero;fill:rgb(42.352941%,42.352941%,42.352941%);fill-opacity:1;" d="M 12.5 25 C 5.597656 25 0 19.402344 0 12.5 C 0 5.597656 5.597656 0 12.5 0 C 19.402344 0 25 5.597656 25 12.5 C 25 19.402344 19.402344 25 12.5 25 Z M 12.5 25 "/>
<path style=" stroke:none;fill-rule:nonzero;fill:rgb(100%,100%,100%);fill-opacity:1;" d="M 14.601562 3.203125 C 11.984375 3.203125 10.449219 4.585938 10.449219 7.734375 L 10.449219 10.507812 L 7.128906 10.507812 L 7.128906 13.828125 L 10.449219 13.828125 L 10.449219 21.796875 L 13.769531 21.796875 L 13.769531 13.828125 L 16.425781 13.828125 L 17.089844 10.507812 L 13.769531 10.507812 L 13.769531 8.296875 C 13.769531 7.109375 14.15625 6.523438 15.269531 6.523438 L 17.089844 6.523438 L 17.089844 3.339844 C 16.773438 3.296875 15.859375 3.203125 14.601562 3.203125 Z M 14.601562 3.203125 "/>
</g>
</svg>
