<?xml version="1.0" encoding="UTF-8"?>
<svg xmlns="http://www.w3.org/2000/svg" xmlns:xlink="http://www.w3.org/1999/xlink" width="25pt" height="25pt" viewBox="0 0 25 25" version="1.1">
<g id="surface850">
<path style=" stroke:none;fill-rule:nonzero;fill:rgb(42.352941%,42.352941%,42.352941%);fill-opacity:1;" d="M 12.5 25 C 5.597656 25 0 19.402344 0 12.5 C 0 5.597656 5.597656 0 12.5 0 C 19.402344 0 25 5.597656 25 12.5 C 25 19.402344 19.402344 25 12.5 25 Z M 12.5 25 "/>
<path style=" stroke:none;fill-rule:nonzero;fill:rgb(100%,100%,100%);fill-opacity:1;" d="M 9.503906 7.109375 C 6.527344 7.109375 4.113281 9.523438 4.113281 12.5 C 4.113281 15.476562 6.527344 17.890625 9.503906 17.890625 C 12.484375 17.890625 14.894531 15.476562 14.894531 12.5 C 14.894531 12.128906 14.855469 11.769531 14.785156 11.421875 L 14.753906 11.300781 L 9.503906 11.300781 L 9.503906 13.097656 L 13.097656 13.097656 C 12.8125 14.796875 11.285156 16.09375 9.503906 16.09375 C 7.519531 16.09375 5.910156 14.484375 5.910156 12.5 C 5.910156 10.515625 7.519531 8.90625 9.503906 8.90625 C 10.402344 8.90625 11.222656 9.238281 11.855469 9.785156 L 13.140625 8.523438 C 12.183594 7.644531 10.90625 7.109375 9.503906 7.109375 Z M 17.890625 9.503906 L 17.890625 11.300781 L 16.09375 11.300781 L 16.09375 12.5 L 17.890625 12.5 L 17.890625 14.296875 L 19.089844 14.296875 L 19.089844 12.5 L 20.886719 12.5 L 20.886719 11.300781 L 19.089844 11.300781 L 19.089844 9.503906 Z M 17.890625 9.503906 "/>
</g>
</svg>
