<?xml version="1.0" encoding="UTF-8"?>
<svg xmlns="http://www.w3.org/2000/svg" xmlns:xlink="http://www.w3.org/1999/xlink" width="25pt" height="25pt" viewBox="0 0 25 25" version="1.1">
<g id="surface579">
<path style=" stroke:none;fill-rule:nonzero;fill:rgb(42.352941%,42.352941%,42.352941%);fill-opacity:1;" d="M 12.5 25 C 5.597656 25 0 19.402344 0 12.5 C 0 5.597656 5.597656 0 12.5 0 C 19.402344 0 25 5.597656 25 12.5 C 25 19.402344 19.402344 25 12.5 25 Z M 12.5 25 "/>
<path style=" stroke:none;fill-rule:nonzero;fill:rgb(100%,100%,100%);fill-opacity:1;" d="M 20.539062 7.25 C 19.9375 7.515625 19.332031 7.71875 18.664062 7.785156 C 19.332031 7.382812 19.867188 6.714844 20.136719 5.976562 C 19.464844 6.378906 18.796875 6.644531 18.058594 6.78125 C 17.390625 6.109375 16.519531 5.707031 15.582031 5.707031 C 13.773438 5.707031 12.296875 7.179688 12.296875 8.988281 C 12.296875 9.257812 12.296875 9.527344 12.367188 9.726562 C 9.617188 9.59375 7.210938 8.320312 5.601562 6.308594 C 5.265625 6.78125 5.132812 7.382812 5.132812 7.984375 C 5.132812 9.125 5.734375 10.128906 6.605469 10.730469 C 6.066406 10.664062 5.535156 10.53125 5.132812 10.328125 C 5.132812 10.328125 5.132812 10.328125 5.132812 10.398438 C 5.132812 12.003906 6.269531 13.34375 7.742188 13.613281 C 7.476562 13.679688 7.210938 13.746094 6.875 13.746094 C 6.671875 13.746094 6.472656 13.746094 6.269531 13.679688 C 6.671875 15.019531 7.878906 15.957031 9.351562 15.957031 C 8.214844 16.828125 6.804688 17.363281 5.265625 17.363281 C 4.996094 17.363281 4.726562 17.363281 4.460938 17.296875 C 5.933594 18.234375 7.675781 18.769531 9.484375 18.769531 C 15.582031 18.769531 18.863281 13.746094 18.863281 9.394531 C 18.863281 9.257812 18.863281 9.125 18.863281 8.988281 C 19.535156 8.519531 20.070312 7.917969 20.539062 7.25 "/>
</g>
</svg>
